HIERARCHY
ROOT Hips
{
	OFFSET 0.00000 0.00000 0.00000
	CHANNELS 6 Xposition Yposition Zposition Yrotation Zrotation Xrotation 
	JOINT Lumbar
	{
		OFFSET 0 0 0
		CHANNELS 3 Zrotation Xrotation Yrotation
		JOINT Neck
		{
			OFFSET 0.00 0.2701 0.00
			CHANNELS 3 Zrotation Xrotation Yrotation
			End Site
			{
				OFFSET 0.00 0.1379 0.00
			}
		}
		JOINT RightShoulder
		{
			OFFSET 0.0119 0.2289 0.1181
			CHANNELS 3 Zrotation Xrotation Yrotation
			JOINT RightElbow
			{
				OFFSET 0.00 -0.1475 0.00
				CHANNELS 2 Zrotation Yrotation
				JOINT RightWrist
				{
					OFFSET 0.00 -0.1605 0.00
					CHANNELS 2 Zrotation Xrotation
					End Site
					{
						OFFSET 0.0040 -0.1068 0.0006
					}
				}
			}
		}
		JOINT LeftShoulder
		{
			OFFSET 0.0119 0.2289 -0.1181
			CHANNELS 3 Zrotation Xrotation Yrotation
			JOINT LeftElbow
			{
				OFFSET 0.00 -0.1475 0.00
				CHANNELS 2 Zrotation Yrotation
				JOINT LeftWrist
				{
					OFFSET 0.00 -0.1605 0.00
					CHANNELS 2 Zrotation Xrotation
					End Site
					{
						OFFSET 0.0040 -0.1068 -0.0006
					}
				}
			}
		}
	}
	JOINT RightHip
	{
		OFFSET 0.0316 -0.0424 0.0458
		CHANNELS 3 Zrotation Xrotation Yrotation
		JOINT RightKnee
		{
			OFFSET 0.00 -0.2438 0.00
			CHANNELS 1 Zrotation
			JOINT RightAnkle
			{
				OFFSET 0.00 -0.2449 0.00
				CHANNELS 3 Zrotation Xrotation Yrotation
				End Site
				{
					OFFSET 0.1237 -0.0542 0.0051
				}
			}
		}
	}
	JOINT LeftHip
	{
		OFFSET 0.0316 -0.0424 -0.0458
		CHANNELS 3 Zrotation Xrotation Yrotation
		JOINT LeftKnee
		{
			OFFSET 0.00 -0.2438 0.00
			CHANNELS 1 Zrotation
			JOINT LeftAnkle
			{
				OFFSET 0.00 -0.2449 0.00
				CHANNELS 3 Zrotation Xrotation Yrotation
				End Site
				{
					OFFSET 0.1237 -0.0542 -0.0051
				}
			}
		}
	}
}
MOTION
Frames: 33
Frame Time: 0.02
0.00074 0.00358 0.0007 -176.31622 -26.73945 1.68615 42.29657 -1.78266 -7.33155 -13.02838 4.32916 -0.36113 -19.65652 -3.0349 -14.85855 22.79219 142.11941 19.43638 8.5868 -18.01469 6.96742 -2.26374 24.96186 -135.39169 24.21986 -5.95755 26.38324 -0.88857 0.21475 -19.92269 -7.42824 -5.42049 -3.60147 31.5149 1.8439 -5.87649 -24.13257 -6.97355 4.37919 2.94566
0.00065 0.00323 0.00061 -176.33461 -26.74409 1.68596 42.30379 -1.78457 -7.32843 -13.03209 4.33318 -0.36116 -19.66891 -3.12009 -14.43289 22.80233 140.22871 19.06965 8.23712 -18.00492 6.98161 -2.27571 24.95722 -135.38774 24.22305 -5.95517 26.41073 -0.94829 -0.14483 -19.96483 -7.39331 -5.3964 -3.58197 31.53914 1.97683 -5.3137 -24.17025 -6.94326 4.31146 2.90844
0.00055 0.00287 0.00052 -176.35305 -26.74874 1.68573 42.311 -1.78648 -7.3253 -13.03578 4.33723 -0.3612 -19.68126 -3.20534 -14.00685 22.81245 138.33733 18.70239 7.8875 -17.99525 6.99587 -2.28786 24.95274 -135.38162 24.22586 -5.95237 26.43818 -1.00789 -0.50381 -20.0069 -7.35842 -5.37233 -3.5625 31.56333 2.10941 -4.75258 -24.20787 -6.91306 4.24395 2.87134
0.00045 0.00252 0.00042 -176.3714 -26.75337 1.68553 42.3182 -1.78839 -7.32219 -13.03948 4.34124 -0.36124 -19.69361 -3.29034 -13.58218 22.82256 136.45118 18.33647 7.53869 -17.98553 7.01003 -2.29983 24.94814 -135.37726 24.22897 -5.94992 26.46558 -1.06744 -0.86237 -20.04892 -7.32358 -5.34831 -3.54305 31.5875 2.24194 -4.19152 -24.24544 -6.88287 4.17642 2.83424
0.00036 0.00216 0.00033 -176.38967 -26.75797 1.68537 42.32539 -1.7903 -7.31908 -13.04319 4.34523 -0.36127 -19.706 -3.37512 -13.15865 22.8327 134.56875 17.97185 7.1903 -17.97566 7.02409 -2.31153 24.9433 -135.37605 24.23261 -5.94809 26.493 -1.12709 -1.22131 -20.09099 -7.28873 -5.32428 -3.5236 31.61169 2.37481 -3.6288 -24.28305 -6.85258 4.10868 2.79701
0.00026 0.00181 0.00023 -176.40847 -26.76274 1.68499 42.33264 -1.79221 -7.31592 -13.04687 4.34939 -0.36131 -19.71827 -3.46135 -12.72747 22.84279 132.65906 17.59915 6.83819 -17.9664 7.03876 -2.32462 24.93957 -135.35972 24.2337 -5.94327 26.52051 -1.18658 -1.58035 -20.13306 -7.25376 -5.30011 -3.50408 31.63589 2.50679 -3.07107 -24.3207 -6.82258 4.04164 2.76018
0.00016 0.00145 0.00014 -176.42617 -26.76717 1.68507 42.33979 -1.79413 -7.31287 -13.05059 4.35319 -0.36135 -19.73077 -3.54464 -12.31177 22.85294 130.80473 17.24272 6.49371 -17.95596 7.05219 -2.33492 24.93364 -135.37333 24.23984 -5.94438 26.54782 -1.24633 -1.93886 -20.17508 -7.21906 -5.27626 -3.48471 31.66004 2.6404 -2.50398 -24.35821 -6.79203 3.97328 2.72261
7e-05 0.0011 4e-05 -176.44489 -26.7719 1.68472 42.34699 -1.79602 -7.30973 -13.05428 4.35732 -0.36138 -19.74306 -3.63051 -11.88252 22.86305 128.90226 16.87203 6.14261 -17.94658 7.06674 -2.34775 24.92972 -135.36024 24.24145 -5.94019 26.5753 -1.30583 -2.29772 -20.21717 -7.18413 -5.25213 -3.46522 31.68424 2.77252 -1.94538 -24.39588 -6.76198 3.90611 2.68571
-3e-05 0.00076 -5e-05 -176.46486 -26.77705 1.68386 42.35443 -1.79795 -7.30645 -13.05792 4.36189 -0.36143 -19.75507 -3.72015 -11.43333 22.87306 126.92742 16.48051 5.78143 -17.93861 7.0828 -2.36389 24.92834 -135.31054 24.23698 -5.92878 26.60303 -1.3651 -2.6578 -20.25926 -7.1488 -5.22757 -3.44552 31.70851 2.90281 -1.39751 -24.43364 -6.73254 3.84044 2.64965
-0.00013 0.00038 -0.00015 -176.47764 -26.77993 1.68598 42.36101 -1.79989 -7.30386 -13.06181 4.36402 -0.36144 -19.76864 -3.78995 -11.08866 22.88353 125.32813 16.19854 5.47224 -17.92286 7.09059 -2.36165 24.91258 -135.4595 24.26586 -5.95665 26.62944 -1.42591 -3.01324 -20.30109 -7.11544 -5.20524 -3.42682 31.73241 3.04361 -0.78892 -24.47058 -6.69961 3.76628 2.60881
-0.00022 7e-05 -0.00023 -176.5056 -26.78749 1.68176 42.36909 -1.80164 -7.29988 -13.0652 4.37124 -0.36152 -19.77893 -3.90042 -10.53024 22.89309 122.96346 15.69225 5.05737 -17.9233 7.11553 -2.39773 24.92702 -135.19721 24.22546 -5.90313 26.65858 -1.48333 -3.37687 -20.34362 -7.07813 -5.17835 -3.40612 31.75707 3.16225 -0.30787 -24.50943 -6.67404 3.70998 2.57802
-0.00029 -5e-05 -0.00023 -176.57558 -26.80892 1.66035 42.38385 -1.80421 -7.29139 -13.06697 4.39302 -0.36179 -19.78011 -4.13336 -9.32271 22.89967 118.25202 14.50751 4.31592 -17.97053 7.19087 -2.54412 25.02675 -133.72371 23.98232 -5.61086 26.69615 -1.53265 -3.7768 -20.38732 -7.02824 -5.13755 -3.37893 31.78432 3.2197 -0.1845 -24.55277 -6.66892 3.70351 2.57537
-0.00036 -9e-05 -0.00021 -176.66068 -26.83492 1.63254 42.39958 -1.80634 -7.2816 -13.06827 4.41979 -0.36212 -19.77801 -4.40516 -7.91173 22.90555 112.81663 13.10898 3.475 -18.03367 7.28303 -2.72833 25.1567 -131.8485 23.67076 -5.23912 26.73656 -1.57834 -4.18248 -20.43217 -6.97469 -5.09243 -3.34989 31.81253 3.25504 -0.18773 -24.59856 -6.67113 3.7148 2.5827
-0.00043 -0.00016 -0.00019 -176.73869 -26.85805 1.60751 42.41328 -1.80775 -7.27288 -13.07 4.44385 -0.36242 -19.77748 -4.65199 -6.63523 22.91188 107.87473 11.84959 2.70366 -18.0879 7.36506 -2.89146 25.27075 -130.21626 23.40025 -4.91454 26.77471 -1.62492 -4.5764 -20.47658 -6.92398 -5.0502 -3.32236 31.83954 3.30069 -0.12807 -24.64322 -6.66984 3.71746 2.5851
-0.0005 -0.00026 -0.00019 -176.81787 -26.88425 1.58299 42.43396 -1.81295 -7.26223 -13.07093 4.46974 -0.36274 -19.77659 -4.92956 -5.18263 22.91707 102.24112 10.41329 1.82973 -18.14893 7.45677 -3.06981 25.3925 -128.34484 23.09247 -4.54555 26.81582 -1.67474 -5.00862 -20.51936 -6.86835 -5.00405 -3.29205 31.86849 3.34495 -0.09146 -24.68637 -6.66933 3.72263 2.58923
-0.00056 -0.00029 -0.00016 -176.89793 -26.90548 1.5559 42.44003 -1.81026 -7.25519 -13.07328 4.49305 -0.36304 -19.77569 -5.15259 -4.04645 22.92518 97.87143 9.29386 1.14523 -18.19995 7.53337 -3.22701 25.50727 -126.85549 22.83996 -4.24723 26.85283 -1.71689 -5.36282 -20.56742 -6.82203 -4.96503 -3.26706 31.89525 3.38716 -0.03663 -24.73524 -6.66889 3.72666 2.59208
-0.0006 -9e-05 -6e-05 -176.97907 -26.90897 1.52327 42.40766 -1.7848 -7.25915 -13.08064 4.50768 -0.36329 -19.77529 -5.21278 -3.8534 22.9356 97.2179 9.11062 1.01458 -18.21571 7.55479 -3.3024 25.57874 -126.70632 22.81141 -4.19049 26.86661 -1.73968 -5.49806 -20.61672 -6.80267 -4.94668 -3.2573 31.90253 3.42676 0.09791 -24.78307 -6.66723 3.72406 2.5893
-0.00063 0.00018 7e-05 -177.06018 -26.90793 1.48827 42.35997 -1.75155 -7.26662 -13.08917 4.51957 -0.36354 -19.77491 -5.21725 -3.98232 22.95018 97.85267 9.25199 1.07688 -18.22132 7.56209 -3.35748 25.64512 -126.92514 22.83195 -4.20328 26.87869 -1.75499 -5.55596 -20.67434 -6.79263 -4.93553 -3.25289 31.91054 3.46547 0.25523 -24.84025 -6.66532 3.71955 2.58483
-0.00066 0.00039 0.00018 -177.13968 -26.91074 1.45437 42.3181 -1.72261 -7.27208 -13.09661 4.53293 -0.36379 -19.77489 -5.24895 -3.95095 22.9666 97.86553 9.23908 1.04654 -18.2343 7.58201 -3.4316 25.72482 -126.84749 22.79264 -4.16572 26.8983 -1.77272 -5.64944 -20.7359 -6.77821 -4.92125 -3.24604 31.92623 3.5062 0.40358 -24.90297 -6.66327 3.71527 2.58086
-0.00073 0.0007 0.0003 -177.22635 -26.90575 1.42014 42.28181 -1.6906 -7.27945 -13.10673 4.54559 -0.364 -19.77378 -5.27385 -3.97108 22.96681 98.00606 9.24751 1.03336 -18.2371 7.57653 -3.46712 25.75953 -127.2834 22.90421 -4.20178 26.88761 -1.79325 -5.7373 -20.76232 -6.76467 -4.90668 -3.23941 31.90604 3.53949 0.54281 -24.92181 -6.66254 3.71415 2.57827
-0.00069 0.00083 0.0004 -177.29816 -26.91638 1.38614 42.22933 -1.66293 -7.28346 -13.11111 4.5589 -0.36435 -19.77422 -5.29928 -3.96351 23.00231 98.19713 9.291 1.03188 -18.25734 7.62016 -3.57585 25.88581 -126.76486 22.72064 -4.10551 26.94192 -1.80774 -5.8234 -20.86711 -6.75107 -4.89389 -3.23329 31.96334 3.58816 0.70666 -25.03752 -6.65892 3.70598 2.57238
-0.00036 0.00049 0.00043 -177.32596 -26.96686 1.3533 42.14368 -1.65112 -7.27959 -13.10356 4.57555 -0.36447 -19.786 -5.33884 -3.79759 23.13013 98.20784 9.3567 1.0134 -18.33817 7.80469 -3.90777 26.27036 -123.32717 21.65355 -3.59746 27.15626 -1.79385 -5.87835 -21.15909 -6.73952 -4.88968 -3.23023 32.2121 3.68156 0.94652 -25.39044 -6.64708 3.67678 2.5568
9e-05 -3e-05 0.00044 -177.33902 -27.03394 1.32086 42.0408 -1.64366 -7.27202 -13.08967 4.59275 -0.36484 -19.79828 -5.38095 -3.59419 23.29433 98.22991 9.4469 1.00101 -18.43507 8.03872 -4.31102 26.74609 -118.95358 20.29845 -2.95961 27.43967 -1.77633 -5.94089 -21.53482 -6.72693 -4.88621 -3.22707 32.54284 3.79038 1.20896 -25.84578 -6.63235 3.64074 2.53802
0.0005 -0.00048 0.00045 -177.36102 -27.0964 1.28828 41.94068 -1.63287 -7.26436 -13.07558 4.60917 -0.36549 -19.80536 -5.4222 -3.4111 23.44425 98.25298 9.52356 0.98761 -18.5179 8.24881 -4.67075 27.17746 -115.1385 19.11292 -2.40098 27.70455 -1.76985 -6.03172 -21.88988 -6.71174 -4.8786 -3.22189 32.85084 3.89066 1.45211 -26.27254 -6.61916 3.60922 2.52137
0.00084 -0.00088 0.00048 -177.37465 -27.14675 1.2553 41.86145 -1.62725 -7.26337 -13.07341 4.62789 -0.36448 -19.83235 -5.45983 -3.22565 23.58383 98.29272 9.62066 0.97313 -18.62855 8.46449 -5.07613 27.6219 -110.77714 17.76663 -1.75978 27.91542 -1.72499 -5.99284 -22.17136 -6.70927 -4.88646 -3.22516 33.0981 3.99659 1.73197 -26.62364 -6.60511 3.57211 2.50205
0.00135 -0.00144 0.00048 -177.40085 -27.22585 1.22344 41.7348 -1.61233 -7.24875 -13.04628 4.6418 -0.36699 -19.81935 -5.50684 -3.03157 23.75476 98.286 9.67792 0.96023 -18.68572 8.68049 -5.40428 28.0597 -107.3223 16.68503 -1.25826 28.25479 -1.75738 -6.21817 -22.62646 -6.68064 -4.86321 -3.2113 33.49066 4.09542 1.9431 -27.15669 -6.59202 3.54452 2.48728
0.00232 -0.00239 0.00041 -177.47706 -27.38437 1.19323 41.48144 -1.5678 -7.18709 -12.93976 4.64393 -0.37922 -19.68372 -5.57457 -2.82695 23.99269 98.12961 9.60968 0.947 -18.5866 8.885 -5.49584 28.46634 -106.63681 16.41449 -1.17933 28.93626 -2.02098 -7.24846 -23.5359 -6.57382 -4.74498 -3.14521 34.27083 4.16221 1.93556 -28.16626 -6.58378 3.54962 2.48833
0.00344 -0.00351 0.00031 -177.56431 -27.5706 1.1644 41.18097 -1.51429 -7.1137 -12.81051 4.64092 -0.39498 -19.50978 -5.65257 -2.61354 24.26278 97.92708 9.50152 0.93538 -18.43387 9.08814 -5.50813 28.86126 -106.88779 16.41826 -1.24422 29.74411 -2.35968 -8.53152 -24.61819 -6.44173 -4.59695 -3.0627 35.19349 4.22277 1.86174 -29.3558 -6.57635 3.56376 2.49364
0.00448 -0.00457 0.00022 -177.63879 -27.74134 1.13583 40.90223 -1.46688 -7.05253 -12.69962 4.63919 -0.40913 -19.36166 -5.7294 -2.39864 24.52527 97.74648 9.41514 0.92341 -18.30902 9.29223 -5.56107 29.25551 -106.68309 16.28977 -1.23949 30.49114 -2.6524 -9.64708 -25.624 -6.32532 -4.46853 -2.99102 36.04627 4.29211 1.83421 -30.46306 -6.56755 3.57057 2.49531
0.00559 -0.00559 0.00014 -177.74528 -27.92448 1.10352 40.62182 -1.41131 -6.96242 -12.55489 4.64192 -0.42335 -19.17926 -5.79235 -2.20184 24.75987 97.5469 9.31093 0.90773 -18.17056 9.497 -5.59818 29.6788 -106.57051 16.18312 -1.248 31.25403 -2.9935 -10.98018 -26.62308 -6.19148 -4.31497 -2.90543 36.92228 4.33763 1.7416 -31.57473 -6.56281 3.59039 2.50391
0.00659 -0.00671 3e-05 -177.78819 -28.08867 1.07933 40.33358 -1.37025 -6.92951 -12.47498 4.63416 -0.43822 -19.05765 -5.88559 -1.97064 25.05916 97.39582 9.23844 0.90311 -18.04666 9.69897 -5.64699 30.03695 -106.50373 16.10016 -1.26511 32.01406 -3.25364 -11.92622 -27.6773 -6.08755 -4.2061 -2.84455 37.78427 4.43013 1.76551 -32.72016 -6.54996 3.58577 2.49935
0.00725 -0.00807 -0.00017 -177.65043 -28.18943 1.07703 40.03816 -1.37412 -7.06049 -12.58225 4.59853 -0.45424 -19.12583 -6.06965 -1.60168 25.5341 97.2016 9.22127 0.90011 -17.98306 9.89708 -5.76026 30.22356 -106.31733 16.01601 -1.26927 32.72633 -3.25515 -11.68809 -28.8315 -6.07599 -4.23319 -2.85907 38.55906 4.66231 2.15311 -33.90168 -6.51353 3.50802 2.45551
0.0078 -0.00953 -0.0004 -177.44874 -28.27102 1.08288 39.73598 -1.39239 -7.24892 -12.75485 4.55261 -0.47076 -19.25399 -6.28249 -1.20524 26.072 97.08341 9.24267 0.91199 -17.93447 10.09165 -5.88545 30.34369 -106.15634 15.9488 -1.27862 33.43298 -3.17558 -11.06104 -30.03688 -6.09478 -4.30536 -2.89848 39.31726 4.94043 2.65544 -35.11312 -6.46912 3.40604 2.39865
